# xmcd
#
# Track frame offsets:
#	150
#	25529
#	44727
#	68682
#
# Disc length: 1211 seconds
#
# Revision: 1
# Processed by: cddbd v1.5.1PL0 Copyright (c) Steve Scherf et al.
# Submitted via: CDex 1.50Beta5
#
DISCID=2c04b904
DTITLE=Giant Step - Bubble ON Flavor E.P.
DYEAR=1999
DGENRE=Pop
TTITLE0=I Don't Know (Where It Comes From)
TTITLE1=バブル・オン・フレーバー (Dr. Moog Respect Version)
TTITLE2=Good Enough
TTITLE3=銀色の霧笛
EXTD=
EXTT0=
EXTT1=
EXTT2=
EXTT3=
PLAYORDER=
